<svg width="53" height="60" viewBox="0 0 53 60" fill="none" xmlns="http://www.w3.org/2000/svg">
<path d="M18.0989 32.3254C20.0832 35.7861 22.8306 38.1667 26.5036 38.1667C30.1734 38.1667 32.918 35.7861 34.902 32.3254C36.8872 28.8644 37.9124 24.4043 37.9124 21.134C37.9124 16.9243 35.71 13.2629 32.4153 11.2363C25.9504 17.3783 18.9248 17.9556 15.5699 17.8093C15.2597 18.8628 15.0889 19.9762 15.0889 21.134C15.0889 24.4043 16.1138 28.8635 18.0989 32.3254Z" fill="white"/>
<path d="M34.8696 59.1234L34.8747 59.1201C34.8705 59.1201 34.8673 59.1213 34.8623 59.1222L34.8696 59.1234Z" fill="#FF0000"/>
<path d="M3.13184 48.5186C16.1198 59.789 36.8803 59.7882 49.8672 48.5186C48.9248 45.615 46.5279 44.2388 43.584 43.3046C40.3744 42.2872 36.896 42.1449 34.5604 41.2459C33.6696 40.903 33.0531 40.1394 32.7105 39.3625C32.6897 39.3154 32.6701 39.2685 32.6503 39.2202H32.6494C30.8885 40.4191 28.8351 41.1567 26.5026 41.1567C24.2014 41.1567 22.1709 40.4402 20.4249 39.2705C20.3941 39.3367 20.3636 39.4026 20.3311 39.4668C19.9487 40.2226 19.2919 40.9181 18.4378 41.2459C16.1022 42.144 12.6277 42.2872 9.41808 43.3046C6.47496 44.2388 4.07806 45.6159 3.13184 48.5186Z" fill="#FF0000"/>
<path d="M4.29751 42.4634L4.2959 42.465C4.29869 42.4634 4.30021 42.4634 4.3014 42.4634H4.29751Z" fill="#FF0000"/>
<path d="M20.3315 39.4666C20.364 39.4024 20.3945 39.3364 20.4253 39.2702C22.1714 40.4399 24.2018 41.1565 26.503 41.1565C28.8356 41.1565 30.889 40.4189 32.6499 39.22H32.6507C32.6706 39.2683 32.6902 39.3152 32.7109 39.3623C33.0535 40.1391 33.67 40.9028 34.5608 41.2457C36.8964 42.1446 40.3748 42.287 43.5844 43.3043C46.5284 44.2385 48.9253 45.6148 49.8676 48.5183C36.8807 59.7879 16.1203 59.7888 3.13229 48.5183C4.07852 45.6156 6.47542 44.2385 9.41853 43.3043C12.6282 42.287 16.1027 42.1438 18.4382 41.2457C19.2924 40.9178 19.9491 40.2223 20.3315 39.4666ZM32.4147 11.2364C35.7095 13.2629 37.9118 16.9243 37.9118 21.134C37.9118 24.4044 36.8866 28.8644 34.9015 32.3254C32.9175 35.7862 30.1728 38.1668 26.503 38.1668C22.8301 38.1668 20.0827 35.7862 18.0984 32.3254C16.1133 28.8635 15.0883 24.4044 15.0883 21.134C15.0883 19.9762 15.2592 18.8628 15.5693 17.8093C18.9242 17.9556 25.9498 17.3783 32.4147 11.2364ZM52.9667 48.7116C51.9614 43.9578 48.1255 41.6145 44.4615 40.453C40.7975 39.2893 36.9222 38.9574 35.6047 38.4514C35.5829 38.4432 35.5325 38.4472 35.4012 38.1446C35.2985 37.9131 35.1988 37.5343 35.1266 37.0471C36.0126 36.074 36.7878 34.9805 37.4476 33.8278C38.2514 32.4257 38.9012 30.925 39.4168 29.4028L39.4297 29.5249C39.4297 29.5249 41.332 29.1005 41.9761 24.9541C42.6208 20.8096 41.4355 19.4901 41.4355 19.4901C41.4355 19.4901 43.0128 14.1821 41.3644 10.1088C39.7161 6.03746 36.7069 5.52749 36.7069 5.52749C36.7069 5.52749 34.0552 0.0739658 27.1044 0.000609661C20.1538 -0.0715125 10.0504 6.25506 10.7665 19.1262C10.7665 19.1262 9.65203 20.0725 10.2254 24.653C10.7939 29.2022 13.5534 29.521 13.6186 29.5249C13.7401 29.8766 13.8656 30.2267 14.0019 30.5744L15.2997 33.3718C16.0382 34.7409 16.938 36.0399 17.9897 37.1715C17.9128 37.5863 17.8111 37.906 17.7112 38.1014C17.5741 38.371 17.5127 38.4051 17.3954 38.4514H17.3943C16.0777 38.9574 12.2035 39.2893 8.53948 40.453C7.0916 40.9118 5.6171 41.5574 4.29968 42.4634C4.29883 42.4634 4.29773 42.4634 4.29572 42.4645C2.95368 43.3884 1.77536 44.5812 0.959596 46.1267C-0.0437732 47.6501 0.00163777 48.9553 0.00163777 48.9553C-0.0190922 49.4023 0.15781 49.8352 0.484505 50.135C9.79283 58.6765 22.8914 61.6682 34.862 59.1223C34.8668 59.1214 34.8699 59.1202 34.8738 59.1202C41.3516 57.7404 47.4984 54.7444 52.5321 50.1188C52.9154 49.7671 53.0753 49.225 52.9667 48.7116Z" fill="#232731"/>
</svg>
