<svg width="26" height="26" viewBox="0 0 26 26" fill="none" xmlns="http://www.w3.org/2000/svg">
<path d="M8.12499 6.50007H9.01924C9.12482 7.01799 9.32967 7.5 9.61226 7.92625L8.97847 8.56005C8.66114 8.87738 8.66114 9.39179 8.97847 9.70907C9.29569 10.0263 9.81016 10.0264 10.1275 9.70907L10.7613 9.07527C11.1875 9.35787 11.6695 9.56272 12.1875 9.66829V10.5625C12.1875 11.0112 12.5513 11.375 13 11.375C13.4487 11.375 13.8124 11.0112 13.8124 10.5625V9.66829C14.3304 9.56272 14.8124 9.35787 15.2386 9.07527L15.8724 9.70907C16.1897 10.0263 16.7042 10.0264 17.0214 9.70907C17.3388 9.39179 17.3388 8.87733 17.0214 8.56005L16.3876 7.92625C16.6702 7.5 16.8751 7.01799 16.9807 6.50007H17.8749C18.3236 6.50007 18.6874 6.13628 18.6874 5.68758C18.6874 5.23888 18.3236 4.87508 17.8749 4.87508H16.9807C16.8751 4.35717 16.6702 3.87516 16.3876 3.4489L17.0214 2.81511C17.3388 2.49778 17.3388 1.98337 17.0214 1.66609C16.7042 1.34876 16.1898 1.34876 15.8724 1.66609L15.2386 2.29989C14.8124 2.01729 14.3304 1.81244 13.8124 1.70687V0.812616C13.8124 0.363916 13.4487 0.00012207 13 0.00012207C12.5513 0.00012207 12.1875 0.363916 12.1875 0.812616V1.70687C11.6695 1.81244 11.1875 2.01729 10.7613 2.29989L10.1275 1.66609C9.81016 1.34876 9.29575 1.34876 8.97847 1.66609C8.66114 1.98337 8.66114 2.49783 8.97847 2.81511L9.61226 3.4489C9.32967 3.87516 9.12482 4.35717 9.01924 4.87508H8.12499C7.67629 4.87508 7.3125 5.23888 7.3125 5.68758C7.3125 6.13628 7.67624 6.50007 8.12499 6.50007ZM10.6981 4.88727C10.9426 4.18614 11.4986 3.63019 12.1997 3.38568C12.2644 3.76969 12.5976 4.06254 13 4.06254C13.4023 4.06254 13.7356 3.76969 13.8002 3.38568C14.5013 3.63014 15.0573 4.18614 15.3018 4.88727C14.9178 4.95197 14.6249 5.28514 14.6249 5.68753C14.6249 6.08991 14.9178 6.42314 15.3018 6.48778C15.0573 7.18891 14.5013 7.74486 13.8002 7.98937C13.7355 7.60537 13.4023 7.31251 13 7.31251C12.5976 7.31251 12.2643 7.60537 12.1997 7.98937C11.4986 7.74491 10.9426 7.18891 10.6981 6.48778C11.0821 6.42309 11.375 6.08991 11.375 5.68753C11.375 5.28514 11.0821 4.95197 10.6981 4.88727Z" fill="#0688E6"/>
<path d="M16.4235 18.0375C16.6888 17.767 16.7353 17.3401 16.5192 17.0174C16.455 16.9215 16.5435 17.0194 14.7932 15.2692C14.4759 14.9519 13.9615 14.9519 13.6442 15.2692C13.3269 15.5865 13.3269 16.1009 13.6442 16.4183L13.8821 16.6562H10.1562C9.70754 16.6562 9.34375 17.02 9.34375 17.4687C9.34375 17.9174 9.70754 18.2812 10.1562 18.2812H13.8821L13.6442 18.5192C13.3269 18.8365 13.3269 19.3509 13.6442 19.6683C13.9615 19.9855 14.4759 19.9855 14.7932 19.6683C16.157 18.3045 16.3764 18.0854 16.4235 18.0375Z" fill="#0688E6"/>
<path d="M10.1179 21.3732C9.93297 19.8071 9.01861 18.4874 7.73964 17.7354C8.47515 17.0662 8.93751 16.1017 8.93751 15.0313V14.2188C8.93751 12.2028 7.29734 10.5626 5.28129 10.5626C3.26524 10.5626 1.62507 12.2028 1.62507 14.2188V15.0313C1.62507 16.0962 2.08291 17.056 2.81182 17.7248C1.51498 18.4798 0.59178 19.8172 0.415215 21.4064L0.00505757 25.0978C-0.0483639 25.5785 0.328227 26 0.812575 26H9.75001C10.2361 26 10.6139 25.5753 10.5569 25.0922L10.1179 21.3732ZM3.25006 14.2188C3.25006 13.0988 4.16127 12.1876 5.28129 12.1876C6.40131 12.1876 7.31253 13.0988 7.31253 14.2188V15.0313C7.31253 16.1514 6.40131 17.0626 5.28129 17.0626C4.16127 17.0626 3.25006 16.1514 3.25006 15.0313V14.2188ZM1.72033 24.375L2.03025 21.5858C2.21382 19.9335 3.60593 18.6876 5.26839 18.6876C6.91943 18.6876 8.31047 19.924 8.50405 21.5637L8.83595 24.375H1.72033Z" fill="#0688E6"/>
<path d="M25.9944 25.0922L25.5554 21.3732C25.3705 19.8071 24.4561 18.4874 23.1771 17.7354C23.9127 17.0662 24.375 16.1017 24.375 15.0313V14.2188C24.375 12.2028 22.7348 10.5626 20.7188 10.5626C18.7027 10.5626 17.0626 12.2028 17.0626 14.2188V15.0313C17.0626 16.0962 17.5204 17.056 18.2493 17.7248C16.9525 18.4798 16.0293 19.8172 15.8527 21.4064L15.4426 25.0978C15.3891 25.5785 15.7657 26 16.2501 26H25.1875C25.6735 26 26.0514 25.5753 25.9944 25.0922ZM18.6876 14.2188C18.6876 13.0988 19.5988 12.1876 20.7188 12.1876C21.8388 12.1876 22.75 13.0988 22.75 14.2188V15.0313C22.75 16.1514 21.8388 17.0626 20.7188 17.0626C19.5988 17.0626 18.6876 16.1514 18.6876 15.0313V14.2188ZM17.1578 24.375L17.4677 21.5858C17.6513 19.9335 19.0434 18.6876 20.7059 18.6876C22.3569 18.6876 23.748 19.924 23.9415 21.5637L24.2735 24.375H17.1578Z" fill="#0688E6"/>
</svg>
