<svg width="22" height="22" viewBox="0 0 22 22" fill="none" xmlns="http://www.w3.org/2000/svg">
<path fill-rule="evenodd" clip-rule="evenodd" d="M19.3168 10.9997C19.3168 15.5931 15.5931 19.3168 10.9997 19.3168C6.4063 19.3168 2.68262 15.5931 2.68262 10.9997C2.68262 6.4063 6.4063 2.68262 10.9997 2.68262C15.5931 2.68262 19.3168 6.4063 19.3168 10.9997ZM11.7464 8.63127L6.14397 10.935C5.15976 11.3135 5.7438 11.6704 5.7438 11.6704C5.7438 11.6704 6.57659 11.9624 7.30122 12.1787C8.01504 12.395 8.4044 12.1571 8.4044 12.1571L11.7788 9.88586C12.9793 9.06389 12.6981 9.73445 12.4061 10.0265C11.7896 10.6538 10.7513 11.638 9.88611 12.4275C9.50757 12.7628 9.69143 13.0548 9.86448 13.1954C10.336 13.6007 11.4464 14.3287 11.9862 14.6825C12.1522 14.7914 12.2642 14.8648 12.2871 14.8826C12.4061 14.9799 13.0767 15.4126 13.4877 15.3152C13.8986 15.2179 13.9419 14.6663 13.9419 14.6663L14.5476 10.8917C14.5995 10.5514 14.6514 10.2181 14.7 9.90581C14.8337 9.04682 14.9427 8.3472 14.9585 8.10132C15.0343 7.29016 14.169 7.62544 14.169 7.62544C14.169 7.62544 12.298 8.39333 11.7464 8.63127Z" fill="white"/>
</svg>
