<svg width="26" height="26" viewBox="0 0 26 26" fill="none" xmlns="http://www.w3.org/2000/svg">
<path d="M14.415 15.2659L19.3607 10.3202C19.6366 10.0444 19.6366 9.59699 19.3607 9.32109C19.0848 9.04515 18.6374 9.04515 18.3615 9.32109L13.9155 13.7672L11.5889 11.4407C11.313 11.1647 10.8657 11.1647 10.5898 11.4407C10.3138 11.7166 10.3138 12.1639 10.5898 12.4398L13.4159 15.2659C13.6918 15.5419 14.1391 15.5419 14.415 15.2659Z" fill="#84C978" stroke="#84C978" stroke-width="0.5"/>
<path d="M10.8801 18.6522H10.1025C10.0107 18.2019 9.83256 17.7827 9.58682 17.4121L10.138 16.8609C10.4139 16.585 10.4139 16.1377 10.138 15.8618C9.86206 15.5858 9.41474 15.5858 9.1388 15.8618L8.58767 16.4129C8.21701 16.1672 7.79786 15.989 7.3475 15.8972V15.1196C7.3475 14.7294 7.03115 14.4131 6.64097 14.4131C6.2508 14.4131 5.93445 14.7294 5.93445 15.1196V15.8972C5.48409 15.989 5.06494 16.1672 4.69428 16.4129L4.14315 15.8618C3.86721 15.5858 3.41989 15.5858 3.14399 15.8618C2.86805 16.1377 2.86805 16.585 3.14399 16.8609L3.69513 17.4121C3.44939 17.7827 3.27126 18.2019 3.17945 18.6522H2.40184C2.01166 18.6522 1.69531 18.9686 1.69531 19.3587C1.69531 19.7489 2.01166 20.0653 2.40184 20.0653H3.17945C3.27126 20.5156 3.44939 20.9348 3.69513 21.3054L3.14399 21.8566C2.86805 22.1325 2.86805 22.5798 3.14399 22.8557C3.41985 23.1316 3.86721 23.1317 4.14315 22.8557L4.69428 22.3046C5.06494 22.5503 5.48409 22.7285 5.93445 22.8203V23.5979C5.93445 23.9881 6.2508 24.3044 6.64097 24.3044C7.03115 24.3044 7.3475 23.9881 7.3475 23.5979V22.8203C7.79786 22.7285 8.21701 22.5503 8.58767 22.3046L9.1388 22.8557C9.4147 23.1316 9.86206 23.1317 10.138 22.8557C10.4139 22.5798 10.4139 22.1325 10.138 21.8566L9.58682 21.3054C9.83256 20.9348 10.0107 20.5156 10.1025 20.0653H10.8801C11.2703 20.0653 11.5866 19.7489 11.5866 19.3587C11.5866 18.9686 11.2703 18.6522 10.8801 18.6522ZM8.6426 20.0546C8.43002 20.6643 7.94654 21.1478 7.33686 21.3604C7.28064 21.0265 6.99088 20.7718 6.64097 20.7718C6.29107 20.7718 6.00131 21.0265 5.94509 21.3604C5.33541 21.1478 4.85197 20.6644 4.63935 20.0546C4.97327 19.9984 5.22793 19.7087 5.22793 19.3587C5.22793 19.0088 4.97327 18.7191 4.63935 18.6628C4.85193 18.0531 5.33541 17.5697 5.94509 17.3571C6.00131 17.691 6.29107 17.9457 6.64097 17.9457C6.99088 17.9457 7.28064 17.691 7.33686 17.3571C7.94654 17.5697 8.42998 18.0531 8.6426 18.6629C8.30868 18.7191 8.05402 19.0088 8.05402 19.3587C8.05402 19.7087 8.30868 19.9984 8.6426 20.0546Z" fill="#84C978" stroke="#84C978" stroke-width="0.5"/>
<path d="M14.4109 24.3044C14.3576 24.3044 14.3043 24.2983 14.252 24.2863C13.437 24.0982 13.1894 23.8287 12.4326 23.4852C12.0772 23.324 11.9199 22.9052 12.0812 22.5499C12.2424 22.1946 12.6612 22.0372 13.0165 22.1985C13.6388 22.4809 13.7425 22.707 14.4109 22.8715C19.4114 21.6424 22.8891 17.2165 22.8891 12.052V5.08379L14.4109 3.12725L5.93258 5.08379V10.7392C5.93258 11.1918 5.96022 11.6475 6.0148 12.0934C6.06218 12.4807 5.78659 12.8331 5.39928 12.8805C5.01207 12.9277 4.6596 12.6523 4.61222 12.265C4.55071 11.7623 4.51953 11.249 4.51953 10.7392V4.52175C4.51953 4.19273 4.74663 3.90729 5.06718 3.83333L14.252 1.71376C14.3565 1.68965 14.4652 1.68965 14.5697 1.71376L23.7545 3.83333C24.0751 3.90729 24.3022 4.19273 24.3022 4.52175V12.052C24.3022 14.8798 23.3327 17.6558 21.5722 19.8687C19.8119 22.0815 17.325 23.6504 14.5697 24.2863C14.5175 24.2983 14.4642 24.3044 14.4109 24.3044Z" fill="#84C978" stroke="#84C978" stroke-width="0.5"/>
</svg>
