<svg width="22" height="22" viewBox="0 0 22 22" fill="none" xmlns="http://www.w3.org/2000/svg">
<path fill-rule="evenodd" clip-rule="evenodd" d="M19.3168 11.0007C19.3168 15.5941 15.5931 19.3177 10.9997 19.3177C6.4063 19.3177 2.68262 15.5941 2.68262 11.0007C2.68262 6.40727 6.4063 2.68359 10.9997 2.68359C15.5931 2.68359 19.3168 6.40727 19.3168 11.0007ZM15.0756 8.03604C15.5186 7.98315 15.94 7.86547 16.3323 7.69139C16.0381 8.13131 15.6679 8.51535 15.2391 8.8255C15.2437 8.91938 15.2458 9.01359 15.2458 9.10851C15.2458 11.9997 13.0449 15.3337 9.02062 15.3337C7.78497 15.3337 6.63513 14.9712 5.6667 14.3502C5.83796 14.3709 6.0124 14.3814 6.18891 14.3814C7.21371 14.3814 8.15725 14.0315 8.90607 13.4445C7.94891 13.4266 7.14087 12.7941 6.86244 11.9251C6.99622 11.9503 7.13316 11.9637 7.27431 11.9637C7.47395 11.9637 7.66692 11.9373 7.8508 11.8869C6.84982 11.6859 6.09575 10.8019 6.09575 9.74171V9.71406C6.39957 9.88304 6.73944 9.97684 7.08693 9.98761C6.49993 9.59533 6.11362 8.92568 6.11362 8.16669C6.11362 7.76569 6.22148 7.38985 6.4099 7.0666C7.489 8.39016 9.10116 9.26121 10.9196 9.3526C10.8825 9.19219 10.8632 9.02511 10.8632 8.85386C10.8632 7.64518 11.8429 6.66592 13.0509 6.66592C13.6802 6.66592 14.249 6.93139 14.6479 7.35659C15.1381 7.26031 15.6082 7.08072 16.0377 6.82562C15.8741 7.33625 15.5277 7.7653 15.0756 8.03604Z" fill="white"/>
</svg>
