<svg width="56" height="45" viewBox="0 0 56 45" fill="none" xmlns="http://www.w3.org/2000/svg">
<g clip-path="url(#clip0_738_23350)">
<path d="M40.7502 41.7787C37.0469 41.2889 34.2128 39.6171 32.2479 36.7633C30.3961 33.8248 29.749 30.2475 30.3067 26.0315C31.033 20.5409 33.3589 15.6609 37.2843 11.3915C41.2228 7.02409 45.7998 3.98818 51.0155 2.28377L51.6801 3.07724C49.3707 4.36797 45.6287 7.5706 43.7031 9.80995C41.7774 12.0493 39.5814 17.1148 40.1629 20.4923C40.1629 20.4923 43.7592 19.8353 45.8936 20.5062C48.9005 21.4514 50.4585 22.7681 51.6342 24.459C53.4619 27.0876 53.6499 29.7178 53.2608 32.6592C52.8458 35.7967 51.4076 38.2003 48.9463 39.87C46.585 41.5529 43.853 42.1891 40.7502 41.7787Z" fill="#D9D9D9"/>
<path d="M13.4377 41.7787C9.73438 41.2889 6.90028 39.6171 4.93542 36.7633C3.08361 33.8248 2.43654 30.2475 2.99421 26.0315C3.72048 20.5409 6.04635 15.6609 9.97183 11.3915C13.9103 7.02409 18.4873 3.98818 23.703 2.28377L24.3676 3.07724C22.0582 4.36797 18.3162 7.5706 16.3906 9.80995C14.4649 12.0493 12.2689 17.1148 12.8504 20.4923C12.8504 20.4923 16.4467 19.8353 18.5811 20.5062C21.588 21.4514 23.146 22.7681 24.3217 24.459C26.1494 27.0876 26.3374 29.7178 25.9483 32.6592C25.5333 35.7967 24.0951 38.2003 21.6338 39.87C19.2725 41.5529 16.5405 42.1891 13.4377 41.7787Z" fill="#D9D9D9"/>
</g>
<defs>
<clipPath id="clip0_738_23350">
<rect width="56" height="45" fill="white"/>
</clipPath>
</defs>
</svg>
