<svg width="30" height="30" viewBox="0 0 30 30" fill="none" xmlns="http://www.w3.org/2000/svg">
<path d="M12.9453 15.9336C13.8143 17.0953 15.1449 17.8223 16.592 17.9259C18.039 18.0295 19.4597 17.4996 20.4853 16.4736L23.4853 13.4736C25.3802 11.5117 25.3531 8.39314 23.4244 6.46447C21.4957 4.5358 18.3772 4.5087 16.4153 6.40356L14.6953 8.11356" stroke="black" stroke-width="2" stroke-linecap="round" stroke-linejoin="round"/>
<path d="M16.9436 13.9338C16.0746 12.7721 14.7439 12.0451 13.2969 11.9415C11.8499 11.8379 10.4292 12.3678 9.40356 13.3938L6.40356 16.3938C4.5087 18.3557 4.5358 21.4743 6.46447 23.4029C8.39314 25.3316 11.5117 25.3587 13.4736 23.4638L15.1836 21.7538" stroke="black" stroke-width="2" stroke-linecap="round" stroke-linejoin="round"/>
</svg>
