<svg width="53" height="60" viewBox="0 0 53 60" fill="none" xmlns="http://www.w3.org/2000/svg">
<path d="M26.5036 38.1669C30.1728 38.1669 32.9179 35.7865 34.9016 32.3255C36.5425 29.4644 37.5161 25.9272 37.8087 22.9368C35.7873 19.0063 34.5368 14.0988 34.1751 12.57C34.0022 12.4105 33.829 12.2509 33.6464 12.1025C25.2581 12.3109 18.7391 16.2847 15.2972 18.9432C15.1638 19.6524 15.0879 20.3835 15.0879 21.1331C15.0879 24.4045 16.1137 28.8645 18.0986 32.3246C20.0835 35.7865 22.8305 38.1669 26.5036 38.1669Z" fill="white"/>
<path d="M49.8676 48.5182C48.9245 45.6151 46.5285 44.2396 43.584 43.3058C40.3743 42.2874 36.8968 42.145 34.5611 41.2461C33.6695 40.9032 33.0528 40.1408 32.7107 39.363C32.6899 39.3161 32.6703 39.2689 32.6504 39.2208V39.2197C30.8891 40.4195 28.8359 41.1568 26.5032 41.1568C24.202 41.1568 22.1708 40.4397 20.4252 39.2697C20.3955 39.3372 20.3638 39.4023 20.3311 39.4674C19.9486 40.223 19.2924 40.9182 18.4384 41.2461C16.1026 42.145 12.6271 42.2874 9.41855 43.3058C6.47486 44.2385 4.07774 45.6159 3.13184 48.5193C16.1203 59.789 36.8811 59.789 49.8676 48.5182Z" fill="#FF0000"/>
<path d="M9.41876 43.3056C12.6273 42.2873 16.1029 42.1448 18.4386 41.246C19.2926 40.9181 19.9488 40.2228 20.3313 39.4672C20.364 39.4021 20.3957 39.337 20.4254 39.2696C22.171 40.4395 24.2022 41.1567 26.5034 41.1567C28.8361 41.1567 30.8894 40.4193 32.6506 39.2195V39.2206C32.6705 39.2688 32.6901 39.3159 32.7109 39.3629C33.053 40.1406 33.6697 40.903 34.5613 41.246C36.897 42.1448 40.3745 42.2873 43.5842 43.3056C46.5287 44.2394 48.9247 45.6149 49.8679 48.518C36.8813 59.7888 16.1205 59.7888 3.13205 48.5191C4.07795 45.6157 6.47507 44.2383 9.41876 43.3056ZM15.297 18.9434C18.7389 16.2849 25.2579 12.3112 33.6462 12.1027C33.8289 12.2511 34.002 12.4107 34.1749 12.5702C34.5367 14.099 35.7872 19.0065 37.8085 22.937C37.516 25.9274 36.5423 29.4646 34.9014 32.3257C32.9177 35.7867 30.1726 38.1671 26.5034 38.1671C22.8303 38.1671 20.0833 35.7867 18.0984 32.3248C16.1135 28.8647 15.0877 24.4047 15.0877 21.1333C15.0877 20.3837 15.1637 19.6526 15.297 18.9434ZM52.9665 48.7117C52.1374 44.7871 49.3766 42.508 46.3775 41.1768C47.5725 28.2908 47.9799 16.9691 41.6735 8.35367C35.2918 -0.364975 26.5794 0.00923397 26.5794 0.00923397C26.5794 0.00923397 13.3272 -0.862376 8.54095 14.3307C4.00092 28.7475 6.30805 40.0882 6.55599 41.2118C4.31336 42.2201 2.21073 43.7569 0.959382 46.1273C-0.0440178 47.6512 0.00167605 48.9553 0.00167605 48.9553C-0.0193156 49.4027 0.157744 49.8352 0.483875 50.1352C9.56698 58.4705 22.259 61.5192 33.9891 59.298C34.4901 59.2028 34.9903 59.1015 35.4876 58.9872C41.7385 57.5526 47.6566 54.5983 52.5328 50.1201C52.9152 49.7669 53.0755 49.2243 52.9665 48.7117Z" fill="#232731"/>
</svg>
