<svg width="84" height="40" viewBox="0 0 84 40" fill="none" xmlns="http://www.w3.org/2000/svg">
<path d="M57.499 18H50.6768V16.6465L53.8965 13.2148C54.3385 12.7318 54.6644 12.3102 54.874 11.9502C55.0882 11.5902 55.1953 11.2484 55.1953 10.9248C55.1953 10.4827 55.0837 10.1364 54.8604 9.88574C54.637 9.63053 54.318 9.50293 53.9033 9.50293C53.4567 9.50293 53.1035 9.65788 52.8438 9.96777C52.5885 10.2731 52.4609 10.6764 52.4609 11.1777H50.4785C50.4785 10.5716 50.6221 10.0179 50.9092 9.5166C51.2008 9.0153 51.611 8.62337 52.1396 8.34082C52.6683 8.05371 53.2676 7.91016 53.9375 7.91016C54.9629 7.91016 55.7581 8.15625 56.3232 8.64844C56.8929 9.14062 57.1777 9.83561 57.1777 10.7334C57.1777 11.2256 57.0501 11.7269 56.7949 12.2373C56.5397 12.7477 56.1022 13.3424 55.4824 14.0215L53.2197 16.4072H57.499V18ZM65.4834 9.1543L61.6348 18H59.5498L63.4053 9.64648H58.4561V8.04688H65.4834V9.1543ZM66.9395 9.79688C66.9395 9.27734 67.124 8.83301 67.4932 8.46387C67.8623 8.09473 68.2975 7.91016 68.7988 7.91016C69.2956 7.91016 69.724 8.09473 70.084 8.46387C70.4486 8.82845 70.6309 9.27279 70.6309 9.79688C70.6309 10.321 70.4486 10.763 70.084 11.123C69.724 11.4785 69.2956 11.6562 68.7988 11.6562C68.3066 11.6562 67.8737 11.4785 67.5 11.123C67.1263 10.763 66.9395 10.321 66.9395 9.79688ZM68.7988 10.6445C69.0404 10.6445 69.2386 10.5648 69.3936 10.4053C69.5531 10.2412 69.6328 10.0384 69.6328 9.79688C69.6328 9.5599 69.5531 9.35482 69.3936 9.18164C69.2386 9.00846 69.0404 8.92188 68.7988 8.92188C68.5573 8.92188 68.3545 9.00846 68.1904 9.18164C68.0264 9.35482 67.9443 9.5599 67.9443 9.79688C67.9443 10.0339 68.0264 10.2344 68.1904 10.3984C68.359 10.5625 68.5618 10.6445 68.7988 10.6445ZM80.2217 14.6846C80.1442 15.7555 79.7477 16.5986 79.0322 17.2139C78.3213 17.8291 77.3825 18.1367 76.2158 18.1367C74.9398 18.1367 73.9349 17.7083 73.2012 16.8516C72.472 15.9902 72.1074 14.8099 72.1074 13.3105V12.7021C72.1074 11.7451 72.276 10.902 72.6133 10.1729C72.9505 9.44368 73.4313 8.88542 74.0557 8.49805C74.6846 8.10612 75.4137 7.91016 76.2432 7.91016C77.3916 7.91016 78.3167 8.21777 79.0186 8.83301C79.7204 9.44824 80.126 10.3118 80.2354 11.4238H78.1846C78.1344 10.7812 77.9544 10.3164 77.6445 10.0293C77.3392 9.73763 76.8721 9.5918 76.2432 9.5918C75.5596 9.5918 75.0469 9.83789 74.7051 10.3301C74.3678 10.8177 74.1947 11.5765 74.1855 12.6064V13.3584C74.1855 14.4339 74.3473 15.2201 74.6709 15.7168C74.999 16.2135 75.514 16.4619 76.2158 16.4619C76.8493 16.4619 77.321 16.3184 77.6309 16.0312C77.9453 15.7396 78.1253 15.2907 78.1709 14.6846H80.2217Z" fill="black"/>
<path d="M55.3564 33H50.4834V32.0332L52.7832 29.582C53.099 29.237 53.3317 28.9359 53.4814 28.6787C53.6344 28.4215 53.7109 28.1774 53.7109 27.9463C53.7109 27.6305 53.6312 27.3831 53.4717 27.2041C53.3122 27.0218 53.0843 26.9307 52.7881 26.9307C52.4691 26.9307 52.2168 27.0413 52.0312 27.2627C51.849 27.4808 51.7578 27.7689 51.7578 28.127H50.3418C50.3418 27.694 50.4443 27.2985 50.6494 26.9404C50.8577 26.5824 51.1507 26.3024 51.5283 26.1006C51.9059 25.8955 52.334 25.793 52.8125 25.793C53.5449 25.793 54.113 25.9688 54.5166 26.3203C54.9235 26.6719 55.127 27.1683 55.127 27.8096C55.127 28.1611 55.0358 28.5192 54.8535 28.8838C54.6712 29.2484 54.3587 29.6732 53.916 30.1582L52.2998 31.8623H55.3564V33ZM59.5264 30.1582C59.1585 30.5195 58.7288 30.7002 58.2373 30.7002C57.609 30.7002 57.1061 30.4854 56.7285 30.0557C56.3509 29.6227 56.1621 29.04 56.1621 28.3076C56.1621 27.8421 56.263 27.4157 56.4648 27.0283C56.6699 26.6377 56.9548 26.335 57.3193 26.1201C57.6839 25.902 58.0941 25.793 58.5498 25.793C59.0186 25.793 59.4352 25.9102 59.7998 26.1445C60.1644 26.3789 60.4476 26.7158 60.6494 27.1553C60.8512 27.5947 60.9538 28.0977 60.957 28.6641V29.1865C60.957 30.3714 60.6624 31.3024 60.0732 31.9795C59.484 32.6566 58.6491 33.0179 57.5684 33.0635L57.2217 33.0684V31.8916L57.5342 31.8867C58.7614 31.8314 59.4255 31.2552 59.5264 30.1582ZM58.584 29.6211C58.8118 29.6211 59.0072 29.5625 59.1699 29.4453C59.3359 29.3281 59.4613 29.1865 59.5459 29.0205V28.4395C59.5459 27.9609 59.4548 27.5898 59.2725 27.3262C59.0902 27.0625 58.846 26.9307 58.54 26.9307C58.2568 26.9307 58.0241 27.0609 57.8418 27.3213C57.6595 27.5785 57.5684 27.9023 57.5684 28.293C57.5684 28.6803 57.6562 28.9993 57.832 29.25C58.0111 29.4974 58.2617 29.6211 58.584 29.6211ZM62.0996 27.1406C62.0996 26.7695 62.2314 26.4521 62.4951 26.1885C62.7588 25.9248 63.0697 25.793 63.4277 25.793C63.7826 25.793 64.0885 25.9248 64.3457 26.1885C64.6061 26.4489 64.7363 26.7663 64.7363 27.1406C64.7363 27.515 64.6061 27.8307 64.3457 28.0879C64.0885 28.3418 63.7826 28.4688 63.4277 28.4688C63.0762 28.4688 62.7669 28.3418 62.5 28.0879C62.2331 27.8307 62.0996 27.515 62.0996 27.1406ZM63.4277 27.7461C63.6003 27.7461 63.7419 27.6891 63.8525 27.5752C63.9665 27.458 64.0234 27.3132 64.0234 27.1406C64.0234 26.9714 63.9665 26.8249 63.8525 26.7012C63.7419 26.5775 63.6003 26.5156 63.4277 26.5156C63.2552 26.5156 63.1104 26.5775 62.9932 26.7012C62.876 26.8249 62.8174 26.9714 62.8174 27.1406C62.8174 27.3099 62.876 27.4531 62.9932 27.5703C63.1136 27.6875 63.2585 27.7461 63.4277 27.7461ZM71.7725 33H70.3613V27.5605L68.6768 28.083V26.9355L71.6211 25.8809H71.7725V33ZM75.5225 28.8203H76.2744C76.6325 28.8203 76.8978 28.7308 77.0703 28.5518C77.2428 28.3727 77.3291 28.1351 77.3291 27.8389C77.3291 27.5524 77.2428 27.3294 77.0703 27.1699C76.901 27.0104 76.6667 26.9307 76.3672 26.9307C76.097 26.9307 75.8708 27.0055 75.6885 27.1553C75.5062 27.3018 75.415 27.4938 75.415 27.7314H74.0039C74.0039 27.3604 74.1032 27.0283 74.3018 26.7354C74.5036 26.4391 74.7835 26.208 75.1416 26.042C75.5029 25.876 75.9001 25.793 76.333 25.793C77.085 25.793 77.6742 25.9736 78.1006 26.335C78.527 26.693 78.7402 27.1878 78.7402 27.8193C78.7402 28.1449 78.641 28.4443 78.4424 28.7178C78.2438 28.9912 77.9834 29.2012 77.6611 29.3477C78.0615 29.4909 78.3594 29.7057 78.5547 29.9922C78.7533 30.2786 78.8525 30.6172 78.8525 31.0078C78.8525 31.6393 78.6214 32.1455 78.1592 32.5264C77.7002 32.9072 77.0915 33.0977 76.333 33.0977C75.6234 33.0977 75.0423 32.9105 74.5898 32.5361C74.1406 32.1618 73.916 31.667 73.916 31.0518H75.3271C75.3271 31.3187 75.4264 31.5368 75.625 31.7061C75.8268 31.8753 76.0742 31.96 76.3672 31.96C76.7025 31.96 76.9645 31.8721 77.1533 31.6963C77.3454 31.5173 77.4414 31.2812 77.4414 30.9883C77.4414 30.2786 77.0508 29.9238 76.2695 29.9238H75.5225V28.8203ZM79.9609 27.1406C79.9609 26.7695 80.0928 26.4521 80.3564 26.1885C80.6201 25.9248 80.931 25.793 81.2891 25.793C81.6439 25.793 81.9499 25.9248 82.207 26.1885C82.4674 26.4489 82.5977 26.7663 82.5977 27.1406C82.5977 27.515 82.4674 27.8307 82.207 28.0879C81.9499 28.3418 81.6439 28.4688 81.2891 28.4688C80.9375 28.4688 80.6283 28.3418 80.3613 28.0879C80.0944 27.8307 79.9609 27.515 79.9609 27.1406ZM81.2891 27.7461C81.4616 27.7461 81.6032 27.6891 81.7139 27.5752C81.8278 27.458 81.8848 27.3132 81.8848 27.1406C81.8848 26.9714 81.8278 26.8249 81.7139 26.7012C81.6032 26.5775 81.4616 26.5156 81.2891 26.5156C81.1165 26.5156 80.9717 26.5775 80.8545 26.7012C80.7373 26.8249 80.6787 26.9714 80.6787 27.1406C80.6787 27.3099 80.7373 27.4531 80.8545 27.5703C80.9749 27.6875 81.1198 27.7461 81.2891 27.7461Z" fill="black"/>
<path fill-rule="evenodd" clip-rule="evenodd" d="M33.2133 14.7672C33.2133 18.6133 30.0954 21.7312 26.2492 21.7312C22.4031 21.7312 19.2852 18.6133 19.2852 14.7672C19.2852 10.921 22.4031 7.8031 26.2492 7.8031C30.0954 7.8031 33.2133 10.921 33.2133 14.7672Z" stroke="#231815" stroke-width="1.5"/>
<line x1="38.2793" y1="14.7649" x2="35.7424" y2="14.7649" stroke="#F25022" stroke-width="1.26175" stroke-linecap="round" stroke-linejoin="round"/>
<line x1="16.7558" y1="14.7649" x2="14.219" y2="14.7649" stroke="#F25022" stroke-width="1.26175" stroke-linecap="round" stroke-linejoin="round"/>
<line x1="38.2793" y1="14.7649" x2="35.7424" y2="14.7649" stroke="#FFB900" stroke-width="1.26175" stroke-linecap="round" stroke-linejoin="round"/>
<line x1="16.7558" y1="14.7649" x2="14.219" y2="14.7649" stroke="#231815" stroke-width="1.26175" stroke-linecap="round" stroke-linejoin="round"/>
<g clip-path="url(#clip0_738_15852)">
<line x1="36.6656" y1="20.7807" x2="34.4686" y2="19.5123" stroke="#FFB900" stroke-width="1.26175" stroke-linecap="round" stroke-linejoin="round"/>
</g>
<g clip-path="url(#clip1_738_15852)">
<line x1="21.5015" y1="6.54386" x2="20.2331" y2="4.3469" stroke="#FFB900" stroke-width="1.26175" stroke-linecap="round" stroke-linejoin="round"/>
</g>
<g clip-path="url(#clip2_738_15852)">
<line x1="26.2519" y1="26.7982" x2="26.2519" y2="24.2614" stroke="#231815" stroke-width="1.26175" stroke-linecap="round" stroke-linejoin="round"/>
</g>
<g clip-path="url(#clip3_738_15852)">
<line x1="26.2519" y1="5.27293" x2="26.2519" y2="2.7361" stroke="#FFB900" stroke-width="1.26175" stroke-linecap="round" stroke-linejoin="round"/>
</g>
<g clip-path="url(#clip4_738_15852)">
<line x1="20.2339" y1="25.1875" x2="21.5023" y2="22.9906" stroke="#231815" stroke-width="1.26175" stroke-linecap="round" stroke-linejoin="round"/>
</g>
<g clip-path="url(#clip5_738_15852)">
<line x1="30.9996" y1="6.54604" x2="32.268" y2="4.34909" stroke="#FFB900" stroke-width="1.26175" stroke-linecap="round" stroke-linejoin="round"/>
</g>
<g clip-path="url(#clip6_738_15852)">
<line x1="15.8286" y1="20.7847" x2="18.0255" y2="19.5163" stroke="#231815" stroke-width="1.26175" stroke-linecap="round" stroke-linejoin="round"/>
</g>
<g clip-path="url(#clip7_738_15852)">
<line x1="34.4731" y1="10.0221" x2="36.6701" y2="8.7537" stroke="#FFB900" stroke-width="1.26175" stroke-linecap="round" stroke-linejoin="round"/>
</g>
<path d="M32.5799 14.7671C32.5799 18.2636 29.7454 21.0981 26.2489 21.0981C22.7524 21.0981 19.918 18.2636 19.918 14.7671C19.918 11.2706 22.7524 8.43616 26.2489 8.43616C29.7454 8.43616 32.5799 11.2706 32.5799 14.7671Z" fill="#FFB900"/>
<path fill-rule="evenodd" clip-rule="evenodd" d="M26.9338 18.1977C26.9338 18.1977 27.0894 18.9878 27.1425 18.9954C30.0072 19.4039 32.1567 21.0749 32.1567 24.0526C32.1567 27.316 29.5112 29.9615 26.2478 29.9615H11.0534C7.79004 29.9615 5.14453 27.316 5.14453 24.0526C5.14453 21.0749 7.34706 18.6117 10.2118 18.2031C10.2649 18.1956 10.3169 18.194 10.3674 18.1977C11.1285 14.3178 14.5477 11.3906 18.6506 11.3906C22.7535 11.3906 26.1727 14.3178 26.9338 18.1977Z" fill="#F3F3F3"/>
<path d="M11.5003 29.9615C7.99012 29.9615 5.14453 27.19 5.14453 23.7712C5.14453 20.785 7.31548 18.2927 10.2041 17.7098C11.1971 14.0714 14.6024 11.3906 18.6506 11.3906C23.227 11.3906 26.9819 14.8167 27.3587 19.1791C30.069 19.5414 32.1567 21.8058 32.1567 24.545C32.1567 27.5364 29.6668 29.9615 26.5953 29.9615H11.5003Z" stroke="#231815" stroke-width="1.5" stroke-linecap="round" stroke-linejoin="round"/>
<defs>
<clipPath id="clip0_738_15852">
<rect x="34.0078" y="17.7858" width="5.06478" height="2.53239" rx="1.26619" transform="rotate(30 34.0078 17.7858)" fill="white"/>
</clipPath>
<clipPath id="clip1_738_15852">
<rect x="20.6992" y="2.62024" width="5.06477" height="2.53239" rx="1.26619" transform="rotate(60 20.6992 2.62024)" fill="white"/>
</clipPath>
<clipPath id="clip2_738_15852">
<rect x="27.5156" y="22.9974" width="5.06478" height="2.53239" rx="1.26619" transform="rotate(90 27.5156 22.9974)" fill="white"/>
</clipPath>
<clipPath id="clip3_738_15852">
<rect x="27.5156" y="1.47217" width="5.06477" height="2.53239" rx="1.26619" transform="rotate(90 27.5156 1.47217)" fill="white"/>
</clipPath>
<clipPath id="clip4_738_15852">
<rect x="23.2305" y="22.528" width="5.06477" height="2.53239" rx="1.26619" transform="rotate(120 23.2305 22.528)" fill="white"/>
</clipPath>
<clipPath id="clip5_738_15852">
<rect x="33.9922" y="3.88647" width="5.06477" height="2.53239" rx="1.26619" transform="rotate(120 33.9922 3.88647)" fill="white"/>
</clipPath>
<clipPath id="clip6_738_15852">
<rect x="19.7539" y="19.9789" width="5.06477" height="2.53239" rx="1.26619" transform="rotate(150 19.7539 19.9789)" fill="white"/>
</clipPath>
<clipPath id="clip7_738_15852">
<rect x="38.3945" y="9.21631" width="5.06478" height="2.53239" rx="1.26619" transform="rotate(150 38.3945 9.21631)" fill="white"/>
</clipPath>
</defs>
</svg>
