<svg width="170" height="60" viewBox="0 0 170 60" fill="none" xmlns="http://www.w3.org/2000/svg">
<path d="M161.266 30.877L149.213 48.9076L149.106 49.0693L148.398 50.1264H97.6523V30.877H161.266Z" fill="#FF0000"/>
<path d="M102.768 45.6174C102.265 45.1922 101.71 44.9788 101.106 44.9788C100.502 44.9788 99.9475 45.1922 99.4448 45.6174C98.9419 46.0425 98.6904 46.6361 98.6904 47.3984C98.6904 48.1607 98.9419 48.7545 99.4448 49.1817C99.9475 49.6067 100.502 49.8201 101.106 49.8201C101.71 49.8201 102.265 49.6067 102.768 49.1817C103.27 48.7545 103.524 48.1607 103.524 47.3984C103.524 46.6361 103.27 46.0425 102.768 45.6174Z" fill="white"/>
<path d="M118.748 34.8419C117.417 33.3958 115.744 32.6719 113.73 32.6719C111.806 32.6719 109.992 33.5017 108.292 35.1612L108.023 32.9078H104.363V49.5174H108.427V41.0441C108.427 39.7443 108.822 38.6469 109.617 37.7496C110.412 36.8522 111.425 36.4049 112.657 36.4049C113.932 36.4049 114.916 36.8209 115.61 37.6481C116.303 38.4782 116.651 39.5441 116.651 40.8437V49.5174H120.746V40.8101C120.746 38.2758 120.08 36.2879 118.748 34.8419Z" fill="white"/>
<path d="M125.075 39.2962C125.364 38.2418 125.923 37.441 126.752 36.8925C127.58 36.3436 128.566 36.0673 129.706 36.0673C130.915 36.0673 131.9 36.3436 132.661 36.8925C133.42 37.441 133.869 38.2418 134.004 39.2962H125.075ZM137.066 36.5055C136.992 36.3526 136.912 36.2042 136.824 36.0602C136.617 35.7072 136.381 35.3789 136.119 35.0753C134.596 33.3167 132.414 32.4375 129.572 32.4375C126.909 32.4375 124.776 33.2426 123.178 34.8572C121.577 36.4718 120.777 38.5564 120.777 41.111C120.777 43.8004 121.588 45.9481 123.211 47.5491C124.832 49.1525 127.055 49.9554 129.875 49.9554C131.195 49.9554 132.504 49.7237 133.802 49.265C135.099 48.8063 136.164 48.1384 136.99 47.2638L134.372 44.6752C133.925 45.1453 133.276 45.523 132.425 45.8021C131.574 46.0832 130.746 46.2224 129.942 46.2224C128.532 46.2224 127.39 45.8986 126.516 45.2464C125.645 44.5966 125.14 43.7465 125.007 42.6921H137.931C138.169 40.1845 137.879 38.1223 137.066 36.5055Z" fill="white"/>
<path d="M149.211 48.9075L148.102 45.5164C147.431 45.8514 146.77 46.0201 146.122 46.0201C145.473 46.0201 144.952 45.8177 144.561 45.4151C144.168 45.0126 143.973 44.4302 143.973 43.6679V36.5056H148.573V32.975H144.007V30.877H139.911V32.975H136.824V36.5056H139.911V43.6679C139.911 45.685 140.443 47.2142 141.506 48.2554C142.57 49.2988 144.018 49.7868 145.854 49.7193C146.968 49.6968 148.05 49.4809 149.103 49.0694C149.15 49.0514 149.197 49.0334 149.245 49.0132L149.211 48.9075Z" fill="white"/>
<path d="M6.29294 28.2954V12.002H0.113281V7.05652H18.4709V12.002H12.2607V28.2954H6.29294Z" fill="#FF0000"/>
<path d="M41.5849 28.2943H35.16L33.7674 24.8054H33.764L29.0408 13.0029L26.3144 19.7685H26.3214L24.2967 24.8054H24.2864L22.8937 28.2943H16.5312L26.0434 7.05469H32.1003L41.5849 28.2943Z" fill="#FF0000"/>
<path d="M59.1549 9.14997L56.1863 12.9425C54.8938 11.9715 53.2374 11.4862 51.2181 11.4862C50.4101 11.4862 49.7284 11.618 49.1732 11.8807C48.6175 12.1437 48.3404 12.5382 48.3404 13.064C48.3404 13.7316 48.6128 14.1818 49.1581 14.4142C49.7033 14.6469 50.6018 14.8239 51.8543 14.9451C53.0052 15.0665 54.0551 15.2743 55.0049 15.5671C55.9539 15.8605 56.8576 16.2703 57.7159 16.796C58.574 17.3222 59.2459 18.0248 59.7304 18.9044C60.215 19.7848 60.4575 20.8116 60.4575 21.9841C60.4575 23.5217 60.0031 24.8264 59.0945 25.8986C58.1856 26.971 57.0495 27.7342 55.6863 28.1892C54.323 28.6443 52.8131 28.8818 51.1575 28.902C49.0977 28.922 47.3505 28.6749 45.9167 28.1588C44.4826 27.6432 43.0692 26.6469 41.6758 25.1702L44.9776 21.3776C46.6135 22.9758 48.6833 23.7744 51.1878 23.7744C52.1974 23.7744 53.0052 23.6078 53.6112 23.2738C54.2173 22.9401 54.5199 22.4802 54.5199 21.8931C54.5199 20.8215 53.3385 20.1743 50.9756 19.9515C49.6829 19.8303 48.5721 19.6533 47.6436 19.4205C46.7145 19.1882 45.8207 18.8289 44.9625 18.3433C44.1039 17.8581 43.4524 17.1752 43.0086 16.2954C42.564 15.4155 42.3422 14.3381 42.3422 13.064C42.3422 10.9604 43.2055 9.36224 44.9323 8.26984C46.659 7.17759 48.7538 6.63159 51.2181 6.63159C54.3686 6.63159 57.0138 7.47127 59.1549 9.14997Z" fill="#FF0000"/>
<path d="M82.8743 28.3256H76.9367V20.2851H69.3028V28.3256H63.3047V7.08667H69.3028V15.1572H76.9367V7.08667H82.8743V28.3256Z" fill="#FF0000"/>
<path d="M105.927 7.0564V7.42045L97.324 17.4636C100.878 21.388 103.988 24.8774 106.654 27.9312V28.2953H99.2325L93.1735 21.2256V28.2953H87.1758V7.0564H93.1735V14.035C93.9206 13.1046 95.7792 10.7786 98.7477 7.0564H105.927Z" fill="#FF0000"/>
<path d="M134.887 28.295H134.914V23.2285H134.887V28.295Z" fill="#FF0000"/>
<path d="M169.695 7.05713V12.0022H163.485V28.2945H157.517V12.0022H148.731V28.2945H143.642L134.795 16.8572L134.887 21.4987V28.2945H108.473V7.05713H125.011V12.0922H114.38V15.128H124.407V20.0123H114.38V23.228H128.828V7.05713H133.918L142.885 18.6765C142.844 18.0491 142.784 16.6031 142.703 14.3386V7.05713H169.695Z" fill="#FF0000"/>
<path d="M6.17966 49.5172V33.224H0V28.2783H18.3576V33.224H12.1474V49.5172H6.17966Z" fill="#FF0000"/>
<path d="M26.9289 49.5162H20.9609V28.2773H26.9289V49.5162Z" fill="#FF0000"/>
<path d="M48.9533 49.5172V36.8647L43.5309 43.2971H42.4706L37.1691 36.8954V49.5172H31.2314V28.2783H37.5023L43.0765 35.4692L48.6505 28.2783H54.8908V49.5172H48.9533Z" fill="#FF0000"/>
<path d="M76.1566 44.4505V49.5172H59.1924V28.2782H75.7327V33.3148H65.0995V36.349H75.1266V41.234H65.0995V44.4505H76.1566Z" fill="#FF0000"/>
<path d="M95.5732 30.3719L92.6044 34.1647C91.3119 33.1938 89.6559 32.7086 87.6363 32.7086C86.8284 32.7086 86.1468 32.8404 85.5916 33.1028C85.0359 33.3657 84.7586 33.7601 84.7586 34.2858C84.7586 34.9535 85.0312 35.404 85.5763 35.6362C86.1216 35.8688 87.02 36.0458 88.2725 36.1672C89.4237 36.2886 90.4735 36.4962 91.423 36.7891C92.3722 37.0826 93.2757 37.4924 94.1341 38.0182C94.9924 38.5444 95.664 39.2469 96.1487 40.1266C96.6335 41.0067 96.8759 42.0335 96.8759 43.2063C96.8759 44.7438 96.4212 46.0485 95.5126 47.1205C94.604 48.1929 93.4677 48.9563 92.1047 49.4111C90.7414 49.8662 89.2317 50.1037 87.5759 50.1241C85.5159 50.1442 83.7688 49.8969 82.3348 49.3809C80.9007 48.865 79.4873 47.8691 78.0938 46.3924L81.3957 42.5996C83.032 44.1978 85.1016 44.9966 87.6062 44.9966C88.6159 44.9966 89.4237 44.8296 90.0299 44.496C90.6354 44.1623 90.9382 43.7021 90.9382 43.1152C90.9382 42.0434 89.757 41.3962 87.394 41.1737C86.1012 41.0522 84.9905 40.8752 84.0617 40.6427C83.1326 40.4104 82.239 40.0508 81.3809 39.5655C80.5221 39.08 79.8711 38.3973 79.4267 37.5173C78.9824 36.6377 78.7603 35.5605 78.7603 34.2858C78.7603 32.1826 79.6238 30.5842 81.3504 29.4922C83.0774 28.3998 85.1724 27.8535 87.6363 27.8535C90.7872 27.8535 93.4324 28.6932 95.5732 30.3719Z" fill="#FF0000"/>
<path d="M30.8909 4.3006H27.1953L29.0476 0.171875L30.8909 4.3006Z" fill="#FF0000"/>
<path d="M8.14185 55.3912L6.8989 58.2222H9.38471L8.14185 55.3912ZM10.0949 59.8298L9.58353 58.6775H6.70017L6.18879 59.8298H5.66309L7.89324 54.8506H8.39037L10.6205 59.8298H10.0949Z" fill="white"/>
<path d="M20.3502 58.8339L20.6697 59.1542C20.168 59.6568 19.5642 59.908 18.8587 59.908C18.0351 59.908 17.3994 59.6676 16.9519 59.1862C16.5045 58.7049 16.2783 58.0989 16.2736 57.3685C16.2689 56.9038 16.3601 56.4795 16.5471 56.0952C16.7342 55.7111 17.0276 55.3959 17.4277 55.1492C17.8278 54.9029 18.3049 54.7794 18.8587 54.7794C19.2042 54.7794 19.5323 54.8423 19.8424 54.9679C20.1524 55.0936 20.4118 55.2796 20.6201 55.5263L20.3148 55.8321C19.9122 55.4338 19.427 55.2347 18.8587 55.2347C18.2007 55.2347 17.6881 55.4422 17.3212 55.8571C16.9543 56.272 16.7707 56.7737 16.7707 57.3614C16.7707 57.9734 16.9519 58.4735 17.3141 58.8626C17.6762 59.2513 18.1913 59.4459 18.8587 59.4459C19.4459 59.4459 19.943 59.2419 20.3502 58.8339Z" fill="white"/>
<path d="M30.5914 58.8339L30.9109 59.1542C30.4091 59.6568 29.8054 59.908 29.1 59.908C28.2762 59.908 27.6406 59.6676 27.1931 59.1862C26.7456 58.7049 26.5195 58.0989 26.5148 57.3685C26.5101 56.9038 26.6012 56.4795 26.7883 56.0952C26.9754 55.7111 27.2688 55.3959 27.6689 55.1492C28.0689 54.9029 28.5461 54.7794 29.1 54.7794C29.4455 54.7794 29.7735 54.8423 30.0835 54.9679C30.3936 55.0936 30.6529 55.2796 30.8612 55.5263L30.556 55.8321C30.1534 55.4338 29.6682 55.2347 29.1 55.2347C28.4419 55.2347 27.9293 55.4422 27.5624 55.8571C27.1956 56.272 27.012 56.7737 27.012 57.3614C27.012 57.9734 27.1931 58.4735 27.5552 58.8626C27.9174 59.2513 28.4324 59.4459 29.1 59.4459C29.687 59.4459 30.1841 59.2419 30.5914 58.8339Z" fill="white"/>
<path d="M40.7566 59.3596V59.8291H37.1914V54.8496H40.6926V55.3192H37.6885V57.1047H40.5576V57.5668H37.6885V59.3596H40.7566Z" fill="white"/>
<path d="M50.6195 55.6401L50.2004 55.8749C49.9448 55.4625 49.4688 55.2513 48.7728 55.2419C48.6025 55.2419 48.4415 55.256 48.2902 55.2845C48.1384 55.3129 47.9907 55.3581 47.8461 55.4198C47.7017 55.4813 47.587 55.5751 47.5016 55.7008C47.4164 55.8263 47.3739 55.977 47.3739 56.1521C47.3739 56.2662 47.3997 56.367 47.452 56.4546C47.5041 56.5426 47.5679 56.6147 47.6438 56.6717C47.7195 56.7285 47.8248 56.7807 47.9596 56.8281C48.0946 56.8756 48.2213 56.9122 48.3398 56.9383C48.4581 56.9646 48.6072 56.994 48.7871 57.0274C48.9577 57.0557 49.0985 57.0818 49.2098 57.1056C49.3209 57.1293 49.4522 57.1625 49.604 57.205C49.7554 57.2477 49.8809 57.2918 49.9804 57.3368C50.0799 57.3818 50.1826 57.4411 50.2893 57.5147C50.3957 57.5882 50.4811 57.6687 50.5448 57.7564C50.6088 57.8443 50.6609 57.9498 50.7013 58.0728C50.7413 58.1963 50.7615 58.3314 50.7615 58.4785C50.7615 58.7441 50.7013 58.9752 50.5805 59.172C50.4597 59.3688 50.2987 59.5181 50.0975 59.6199C49.8962 59.7221 49.6867 59.7956 49.4688 59.8408C49.2512 59.8858 49.0191 59.908 48.7728 59.908C48.3184 59.908 47.904 59.8181 47.5301 59.6378C47.1561 59.4578 46.8791 59.1804 46.6992 58.8056L47.1323 58.5709C47.2886 58.8695 47.5169 59.088 47.8177 59.2253C48.1184 59.3629 48.4368 59.4315 48.7728 59.4315C48.948 59.4315 49.1137 59.4187 49.2702 59.3927C49.4265 59.3663 49.5825 59.3202 49.7387 59.2537C49.895 59.1873 50.0205 59.088 50.1152 58.955C50.2098 58.8223 50.2574 58.6611 50.2574 58.4712C50.2574 58.3101 50.2181 58.1716 50.1403 58.0551C50.0621 57.939 49.9413 57.8455 49.7778 57.7741C49.6146 57.7032 49.4595 57.6487 49.3126 57.6107C49.1658 57.5726 48.9741 57.5322 48.7374 57.4898C48.5102 57.4519 48.323 57.4161 48.1764 57.3829C48.0295 57.3498 47.8649 57.2988 47.6829 57.23C47.5005 57.1614 47.3573 57.0831 47.2531 56.9952C47.1489 56.9078 47.06 56.7915 46.9868 56.6469C46.9134 56.502 46.8768 56.3374 46.8768 56.1521C46.8719 55.9059 46.9276 55.6889 47.0436 55.5016C47.1595 55.3143 47.3135 55.1694 47.5053 55.0676C47.697 54.9657 47.8981 54.891 48.109 54.8434C48.3196 54.7962 48.5385 54.7726 48.7659 54.7726C49.6277 54.7726 50.2453 55.0617 50.6195 55.6401Z" fill="white"/>
<path d="M60.6352 55.641L60.216 55.8757C59.9605 55.4634 59.4845 55.2521 58.7885 55.2427C58.6181 55.2427 58.4572 55.2568 58.3058 55.2854C58.154 55.3138 58.0063 55.359 57.8617 55.4206C57.7174 55.4822 57.6026 55.576 57.5173 55.7016C57.432 55.8272 57.3896 55.9778 57.3896 56.1529C57.3896 56.267 57.4154 56.3678 57.4677 56.4555C57.5198 56.5434 57.5835 56.6156 57.6595 56.6725C57.7352 56.7293 57.8404 56.7816 57.9754 56.829C58.1102 56.8764 58.2369 56.9131 58.3554 56.9392C58.4738 56.9655 58.6228 56.9949 58.8027 57.0282C58.9733 57.0565 59.1141 57.0826 59.2255 57.1065C59.3366 57.1301 59.4679 57.1634 59.6197 57.2059C59.771 57.2486 59.8965 57.2926 59.996 57.3376C60.0955 57.3826 60.1983 57.442 60.3049 57.5155C60.4114 57.589 60.4967 57.6696 60.5605 57.7573C60.6244 57.8452 60.6766 57.9507 60.717 58.0737C60.757 58.1972 60.7771 58.3322 60.7771 58.4793C60.7771 58.7449 60.717 58.9761 60.5962 59.1729C60.4753 59.3697 60.3144 59.5189 60.1132 59.6208C59.9118 59.7229 59.7023 59.7965 59.4845 59.8416C59.2668 59.8866 59.0349 59.9089 58.7885 59.9089C58.3341 59.9089 57.9197 59.8189 57.5458 59.6386C57.1717 59.4587 56.8947 59.1812 56.7148 58.8065L57.1479 58.5718C57.3043 58.8704 57.5325 59.0888 57.8334 59.2262C58.134 59.3638 58.4525 59.4323 58.7885 59.4323C58.9637 59.4323 59.1293 59.4195 59.2859 59.3935C59.4421 59.3672 59.5981 59.3211 59.7544 59.2545C59.9107 59.1881 60.0362 59.0888 60.131 58.9558C60.2255 58.8232 60.2731 58.6619 60.2731 58.4721C60.2731 58.3109 60.2338 58.1724 60.1559 58.0559C60.0777 57.9399 59.9569 57.8463 59.7935 57.775C59.6303 57.704 59.4752 57.6495 59.3283 57.6116C59.1815 57.5735 58.9898 57.533 58.7531 57.4906C58.5258 57.4528 58.3386 57.417 58.1921 57.3838C58.0451 57.3507 57.8806 57.2997 57.6985 57.2308C57.5162 57.1622 57.3729 57.0839 57.2687 56.996C57.1645 56.9086 57.0757 56.7924 57.0025 56.6478C56.9291 56.5029 56.8925 56.3383 56.8925 56.1529C56.8875 55.9068 56.9432 55.6897 57.0593 55.5024C57.1751 55.3151 57.3291 55.1702 57.5209 55.0684C57.7127 54.9666 57.9138 54.8919 58.1246 54.8442C58.3352 54.797 58.5542 54.7734 58.7816 54.7734C59.6433 54.7734 60.261 55.0626 60.6352 55.641Z" fill="white"/>
<path d="M75.4846 59.83V55.32H73.7305V54.8505H77.7359V55.32H75.9818V59.83H75.4846Z" fill="white"/>
<path d="M83.8291 57.3545C83.8338 57.7291 83.9083 58.0716 84.0527 58.3821C84.1971 58.6929 84.4242 58.949 84.7346 59.1505C85.0446 59.3523 85.4175 59.4528 85.8531 59.4528C86.4923 59.4528 86.9869 59.2477 87.3374 58.8375C87.6879 58.4274 87.8654 57.933 87.8702 57.3545C87.8702 56.7569 87.6949 56.2553 87.3446 55.85C86.9941 55.4445 86.4971 55.2395 85.8531 55.2345C85.2091 55.2345 84.7085 55.4351 84.3511 55.8356C83.9934 56.2363 83.8197 56.7425 83.8291 57.3545ZM85.8531 54.765C86.6533 54.77 87.2737 55.0247 87.7139 55.5298C88.1542 56.0349 88.3718 56.6432 88.3673 57.3545C88.3673 57.6864 88.3141 58.0041 88.2074 58.3074C88.1008 58.6111 87.9469 58.8838 87.7458 59.1255C87.5446 59.3675 87.2806 59.561 86.954 59.7053C86.6273 59.8502 86.2601 59.9223 85.8531 59.9223C85.3133 59.9223 84.8482 59.7966 84.4575 59.5452C84.0671 59.294 83.7817 58.9776 83.6018 58.5958C83.4218 58.214 83.332 57.7978 83.332 57.3473C83.332 56.6171 83.5579 56.0041 84.0102 55.5084C84.4622 55.013 85.0765 54.765 85.8531 54.765Z" fill="white"/>
<path d="M103.11 59.8291V55.3192H101.355V54.8496H105.361V55.3192H103.607V59.8291H103.11Z" fill="white"/>
<path d="M113.721 55.32H111.988V57.5251H113.693C114.077 57.5251 114.369 57.4244 114.57 57.2227C114.771 57.0212 114.872 56.757 114.872 56.4298C114.872 56.1023 114.773 55.8356 114.574 55.6294C114.375 55.423 114.091 55.32 113.721 55.32ZM113.87 57.9589L115.568 59.8299H114.922L113.274 57.9946H111.988V59.8299H111.491V54.8505H113.721C114.247 54.8505 114.652 55.0012 114.936 55.3022C115.22 55.6034 115.364 55.9791 115.369 56.4298C115.374 56.8469 115.249 57.2002 114.996 57.4894C114.743 57.779 114.368 57.9354 113.87 57.9589Z" fill="white"/>
<path d="M125.242 54.8506H125.739V57.888C125.739 58.5329 125.554 59.0261 125.185 59.3676C124.816 59.7088 124.347 59.8797 123.779 59.8797C123.206 59.8797 122.731 59.7079 122.355 59.3638C121.978 59.0203 121.79 58.5282 121.79 57.888V54.8506H122.287V57.888C122.287 58.3527 122.428 58.7238 122.71 59.0011C122.991 59.2786 123.348 59.4173 123.779 59.4173C124.186 59.4173 124.531 59.2858 124.816 59.0227C125.099 58.7593 125.242 58.3811 125.242 57.888V54.8506Z" fill="white"/>
<path d="M133.567 59.8291V55.3192H131.812V54.8496H135.818V55.3192H134.064V59.8291H133.567Z" fill="white"/>
<path d="M145.951 59.83H145.454V57.6247H142.442V59.83H141.945V54.8505H142.442V57.1552H145.454V54.8505H145.951V59.83Z" fill="white"/>
</svg>
