<svg width="26" height="26" viewBox="0 0 26 26" fill="none" xmlns="http://www.w3.org/2000/svg">
<path d="M25.1875 24.375H23.5625V10.5625C23.5625 4.73835 18.8242 0 13 0C7.17585 0 2.4375 4.73835 2.4375 10.5625V24.375H0.8125C0.363797 24.375 0 24.7388 0 25.1875C0 25.6362 0.363797 26 0.8125 26H25.1875C25.6362 26 26 25.6362 26 25.1875C26 24.7388 25.6362 24.375 25.1875 24.375ZM4.0625 24.375V10.5625C4.0625 5.63433 8.07183 1.625 13 1.625C17.9282 1.625 21.9375 5.63433 21.9375 10.5625V24.375H4.0625Z" fill="#DB4646"/>
<path d="M15.8725 13.3653C16.1898 13.6826 16.7042 13.6827 17.0215 13.3653C17.3389 13.048 17.3389 12.5335 17.0215 12.2162L16.3877 11.5824C16.6703 11.1562 16.8752 10.6742 16.9807 10.1562H17.875C18.3237 10.1562 18.6875 9.79245 18.6875 9.34375C18.6875 8.89505 18.3237 8.53125 17.875 8.53125H16.9807C16.8752 8.01333 16.6703 7.53132 16.3877 7.10506L17.0215 6.47126C17.3389 6.15393 17.3389 5.63951 17.0215 5.32223C16.7042 5.0049 16.1898 5.0049 15.8725 5.32223L15.2387 5.95603C14.8124 5.67343 14.3304 5.46858 13.8125 5.36301V4.46875C13.8125 4.02005 13.4487 3.65625 13 3.65625C12.5513 3.65625 12.1875 4.02005 12.1875 4.46875V5.36301C11.6696 5.46858 11.1876 5.67343 10.7613 5.95603L10.1275 5.32223C9.81018 5.0049 9.29576 5.0049 8.97848 5.32223C8.66115 5.63951 8.66115 6.15398 8.97848 6.47126L9.61228 7.10506C9.32968 7.53132 9.12483 8.01333 9.01926 8.53125H8.125C7.6763 8.53125 7.3125 8.89505 7.3125 9.34375C7.3125 9.79245 7.6763 10.1562 8.125 10.1562H9.01926C9.12483 10.6742 9.32968 11.1562 9.61228 11.5824L8.97848 12.2162C8.66115 12.5336 8.66115 13.048 8.97848 13.3653C9.29571 13.6826 9.81018 13.6826 10.1275 13.3653L10.7613 12.7315C11.1876 13.0141 11.6696 13.2189 12.1875 13.3245V14.2188C12.1875 14.6675 12.5513 15.0312 13 15.0312C13.4487 15.0312 13.8125 14.6675 13.8125 14.2188V13.3245C14.3304 13.2189 14.8124 13.0141 15.2387 12.7315L15.8725 13.3653ZM13 10.9688C12.5976 10.9688 12.2644 11.2616 12.1997 11.6456C11.4986 11.4012 10.9426 10.8451 10.6981 10.144C11.0821 10.0794 11.375 9.74614 11.375 9.34375C11.375 8.94136 11.0821 8.60813 10.6981 8.54349C10.9426 7.84235 11.4986 7.2864 12.1997 7.04189C12.2644 7.42589 12.5976 7.71875 13 7.71875C13.4024 7.71875 13.7356 7.42589 13.8003 7.04189C14.5014 7.28635 15.0574 7.84235 15.3019 8.54349C14.9179 8.60813 14.625 8.94136 14.625 9.34375C14.625 9.74614 14.9179 10.0794 15.3019 10.144C15.0574 10.8451 14.5014 11.4011 13.8003 11.6456C13.7356 11.2616 13.4024 10.9688 13 10.9688Z" fill="#DB4646"/>
<path d="M8.125 17.875C6.78097 17.875 5.6875 18.9685 5.6875 20.3125C5.6875 21.6565 6.78097 22.75 8.125 22.75C9.46903 22.75 10.5625 21.6565 10.5625 20.3125C10.5625 18.9685 9.46903 17.875 8.125 17.875ZM8.125 21.125C7.67701 21.125 7.3125 20.7605 7.3125 20.3125C7.3125 19.8645 7.67701 19.5 8.125 19.5C8.57299 19.5 8.9375 19.8645 8.9375 20.3125C8.9375 20.7605 8.57299 21.125 8.125 21.125Z" fill="#DB4646"/>
<path d="M17.875 18.6875C18.7725 18.6875 19.5 17.96 19.5 17.0625C19.5 16.165 18.7725 15.4375 17.875 15.4375C16.9775 15.4375 16.25 16.165 16.25 17.0625C16.25 17.96 16.9775 18.6875 17.875 18.6875Z" fill="#DB4646"/>
</svg>
