<svg width="193" height="65" viewBox="0 0 193 65" fill="none" xmlns="http://www.w3.org/2000/svg">
<rect width="192" height="64" rx="15" fill="url(#paint0_linear_738_15920)"/>
<path d="M47.496 33.4998C47.4609 29.3122 50.9232 27.277 51.0752 27.1834C49.1101 24.3293 46.0689 23.9316 45.0045 23.8965C42.4546 23.6275 39.9748 25.4288 38.6764 25.4288C37.3547 25.4288 35.3428 23.9316 33.1906 23.9667C30.4184 24.0135 27.81 25.616 26.3946 28.1191C23.4587 33.2073 25.646 40.6934 28.465 44.8107C29.8803 46.8226 31.5179 49.0801 33.6818 48.9983C35.7873 48.9164 36.5827 47.6531 39.1209 47.6531C41.6475 47.6531 42.3844 48.9983 44.5834 48.9515C46.8526 48.9164 48.268 46.9279 49.6365 44.8926C51.2624 42.5883 51.9174 40.3074 51.9408 40.1904C51.8823 40.167 47.5428 38.5061 47.496 33.4998Z" fill="white"/>
<path d="M43.3435 21.1942C44.4781 19.7789 45.2501 17.8489 45.0395 15.8838C43.402 15.954 41.3433 17.0184 40.1619 18.4103C39.1209 19.6385 38.1851 21.6387 38.419 23.5219C40.2672 23.6623 42.1621 22.5862 43.3435 21.1942Z" fill="white"/>
<path d="M76.576 46.7329L75.4294 43.2412H70.4796L69.3331 46.7329H66.8535L71.6262 33.2247H74.3388L79.1115 46.7329H76.576ZM72.9219 35.6118L71.0389 41.3783H74.8608L72.9872 35.6118H72.9219Z" fill="white"/>
<path d="M85.7485 36.6415C87.0038 36.6415 88.0012 37.1002 88.7408 38.0176C89.4803 38.935 89.85 40.1863 89.85 41.7715C89.85 43.3504 89.4834 44.5986 88.7501 45.516C88.0168 46.4334 87.0287 46.8921 85.7858 46.8921C85.0773 46.8921 84.4528 46.7329 83.9121 46.4146C83.3715 46.0901 82.9644 45.647 82.691 45.0854H82.6444V50H80.3233V36.81H82.5885V38.5231H82.6351C82.9209 37.9365 83.3342 37.4778 83.8749 37.147C84.4155 36.81 85.0401 36.6415 85.7485 36.6415ZM85.0401 44.9824C85.792 44.9824 86.3855 44.6953 86.8205 44.1211C87.2555 43.5407 87.473 42.7575 87.473 41.7715C87.473 40.7917 87.2524 40.0116 86.8112 39.4312C86.3762 38.8508 85.7858 38.5606 85.0401 38.5606C84.3192 38.5606 83.7381 38.8539 83.2969 39.4405C82.8557 40.0272 82.632 40.8041 82.6258 41.7715C82.632 42.745 82.8557 43.5251 83.2969 44.1118C83.7381 44.6922 84.3192 44.9824 85.0401 44.9824Z" fill="white"/>
<path d="M96.7667 36.6415C98.022 36.6415 99.0194 37.1002 99.7589 38.0176C100.498 38.935 100.868 40.1863 100.868 41.7715C100.868 43.3504 100.502 44.5986 99.7683 45.516C99.035 46.4334 98.0469 46.8921 96.804 46.8921C96.0955 46.8921 95.471 46.7329 94.9303 46.4146C94.3897 46.0901 93.9826 45.647 93.7092 45.0854H93.6626V50H91.3415V36.81H93.6067V38.5231H93.6533C93.9391 37.9365 94.3524 37.4778 94.893 37.147C95.4337 36.81 96.0583 36.6415 96.7667 36.6415ZM96.0583 44.9824C96.8102 44.9824 97.4037 44.6953 97.8387 44.1211C98.2737 43.5407 98.4912 42.7575 98.4912 41.7715C98.4912 40.7917 98.2706 40.0116 97.8294 39.4312C97.3944 38.8508 96.804 38.5606 96.0583 38.5606C95.3374 38.5606 94.7563 38.8539 94.3151 39.4405C93.8739 40.0272 93.6502 40.8041 93.6439 41.7715C93.6502 42.745 93.8739 43.5251 94.3151 44.1118C94.7563 44.6922 95.3374 44.9824 96.0583 44.9824Z" fill="white"/>
<path d="M105.865 42.9323H108.195C108.27 43.5501 108.587 44.0494 109.146 44.4301C109.705 44.8045 110.398 44.9917 111.225 44.9917C112.032 44.9917 112.691 44.8108 113.201 44.4488C113.717 44.0868 113.974 43.625 113.974 43.0633C113.974 42.5765 113.788 42.1834 113.415 41.8838C113.042 41.578 112.433 41.3253 111.588 41.1256L109.845 40.7137C108.608 40.4266 107.689 39.9804 107.086 39.375C106.489 38.7696 106.191 37.9833 106.191 37.016C106.191 35.824 106.657 34.8566 107.589 34.114C108.521 33.3713 109.724 33 111.197 33C112.676 33 113.866 33.3682 114.767 34.1046C115.674 34.8348 116.143 35.7959 116.174 36.9879H113.881C113.825 36.3576 113.555 35.8645 113.07 35.5088C112.586 35.1468 111.955 34.9659 111.178 34.9659C110.42 34.9659 109.805 35.1375 109.332 35.4807C108.866 35.824 108.633 36.2764 108.633 36.8381C108.633 37.2874 108.813 37.6525 109.174 37.9334C109.54 38.2142 110.137 38.4545 110.964 38.6542L112.511 39.0099C113.872 39.322 114.86 39.7775 115.475 40.3767C116.09 40.9758 116.398 41.7777 116.398 42.7825C116.398 44.0619 115.92 45.0791 114.963 45.8343C114.012 46.5832 112.722 46.9576 111.094 46.9576C109.54 46.9576 108.291 46.5988 107.347 45.8811C106.408 45.1571 105.914 44.1742 105.865 42.9323Z" fill="white"/>
<path d="M118.626 34.4884H120.947V36.81H122.811V38.6074H120.947V43.7654C120.947 44.1711 121.043 44.4706 121.236 44.6641C121.429 44.8576 121.73 44.9543 122.14 44.9543C122.414 44.9543 122.634 44.9387 122.802 44.9075V46.6861C122.522 46.7485 122.122 46.7797 121.6 46.7797C120.531 46.7797 119.766 46.5738 119.306 46.1619C118.853 45.75 118.626 45.0604 118.626 44.0931V38.6074H117.209V36.81H118.626V34.4884Z" fill="white"/>
<path d="M132.068 45.5534C131.204 46.4708 130.042 46.9295 128.582 46.9295C127.121 46.9295 125.959 46.4708 125.095 45.5534C124.231 44.6298 123.799 43.3691 123.799 41.7715C123.799 40.1801 124.235 38.9225 125.105 37.9989C125.975 37.069 127.134 36.6041 128.582 36.6041C130.036 36.6041 131.195 37.069 132.058 37.9989C132.928 38.9225 133.364 40.1801 133.364 41.7715C133.364 43.3691 132.932 44.6298 132.068 45.5534ZM126.81 44.2148C127.245 44.7952 127.836 45.0854 128.582 45.0854C129.327 45.0854 129.918 44.7952 130.353 44.2148C130.788 43.6344 131.005 42.8199 131.005 41.7715C131.005 40.7293 130.788 39.918 130.353 39.3376C129.918 38.7509 129.327 38.4576 128.582 38.4576C127.842 38.4576 127.252 38.7509 126.81 39.3376C126.375 39.918 126.158 40.7293 126.158 41.7715C126.158 42.8199 126.375 43.6344 126.81 44.2148Z" fill="white"/>
<path d="M134.855 46.7329V36.81H137.083V38.5419H137.129C137.297 37.9365 137.586 37.4684 137.996 37.1377C138.413 36.8069 138.913 36.6415 139.497 36.6415C139.702 36.6415 139.945 36.6727 140.224 36.7351V38.8414C139.994 38.754 139.68 38.7104 139.283 38.7104C138.624 38.7104 138.108 38.9101 137.735 39.3095C137.362 39.7089 137.176 40.2581 137.176 40.957V46.7329H134.855Z" fill="white"/>
<path d="M145.305 38.4108C144.658 38.4108 144.118 38.6355 143.683 39.0848C143.254 39.5279 143.015 40.0989 142.965 40.7979H147.579C147.554 40.0927 147.334 39.5185 146.917 39.0754C146.501 38.6323 145.963 38.4108 145.305 38.4108ZM147.588 43.7654H149.76C149.611 44.7078 149.136 45.4723 148.334 46.0589C147.532 46.6393 146.551 46.9295 145.388 46.9295C143.909 46.9295 142.747 46.4739 141.902 45.5628C141.057 44.6454 140.634 43.3941 140.634 41.8089C140.634 40.2362 141.054 38.9756 141.893 38.027C142.738 37.0784 143.872 36.6041 145.295 36.6041C146.693 36.6041 147.803 37.0565 148.623 37.9615C149.443 38.8601 149.854 40.0646 149.854 41.5749V42.3332H142.946V42.4736C142.946 43.2724 143.17 43.9152 143.617 44.402C144.071 44.8888 144.677 45.1322 145.435 45.1322C145.969 45.1322 146.429 45.0105 146.815 44.7671C147.206 44.5174 147.464 44.1836 147.588 43.7654Z" fill="white"/>
<path d="M70.8574 26V23.2217L73.3281 18.9541H71.9561L70.252 22.0205H70.2227L68.5137 18.9541H67.1318L69.6025 23.2217V26H70.8574ZM78.1719 20.6631H76.9561V23.7246C76.9561 24.5156 76.502 25.0381 75.7598 25.0381C75.042 25.0381 74.666 24.6182 74.666 23.8418V20.6631H73.4502V24.0859C73.4502 25.3164 74.1777 26.0684 75.3398 26.0684C76.1504 26.0684 76.6826 25.7168 76.9756 25.0674H77.0049V26H78.1719V20.6631ZM80.4766 22.9043H80.4619V18.627H79.2461V26H80.4619V24.1348L80.8916 23.7002L82.6104 26H84.0166L81.7705 22.9629L83.9287 20.6631H82.5176L80.4766 22.9043ZM84.5684 26H85.7842V18.627H84.5684V26ZM88.792 25.126C88.2256 25.126 87.8545 24.8525 87.8545 24.4229C87.8545 23.9883 88.2061 23.7344 88.8701 23.6904L90.0908 23.6123V24.0176C90.0908 24.667 89.5293 25.126 88.792 25.126ZM88.4355 26.0586C89.1436 26.0586 89.8027 25.7119 90.0957 25.1406H90.125V26H91.292V22.3428C91.292 21.2832 90.4277 20.5898 89.0947 20.5898C87.8398 20.5898 86.9316 21.2881 86.9023 22.2646H88.0254C88.1084 21.835 88.5039 21.5469 89.0557 21.5469C89.71 21.5469 90.0908 21.8545 90.0908 22.4209V22.8115L88.7041 22.8945C87.3613 22.9775 86.6338 23.5195 86.6338 24.4717C86.6338 25.4189 87.3857 26.0586 88.4355 26.0586ZM95.2617 26.0586C96.6143 26.0586 97.4736 25.0039 97.4736 23.334C97.4736 21.6592 96.6094 20.6045 95.2666 20.6045C94.5098 20.6045 93.9043 20.9561 93.5967 21.5615H93.5674V18.627H92.3516V26H93.5381V25.0918H93.5674C93.8799 25.707 94.4805 26.0586 95.2617 26.0586ZM94.9004 21.6152C95.7012 21.6152 96.2285 22.2891 96.2285 23.334C96.2285 24.3789 95.7061 25.0479 94.9004 25.0479C94.0996 25.0479 93.5625 24.3643 93.5625 23.334C93.5625 22.3086 94.0996 21.6152 94.9004 21.6152ZM102.869 26.0781C104.451 26.0781 105.442 25.0332 105.442 23.3291C105.442 21.6396 104.441 20.5898 102.869 20.5898C101.307 20.5898 100.301 21.6445 100.301 23.3291C100.301 25.0332 101.297 26.0781 102.869 26.0781ZM102.869 25.1064C102.039 25.1064 101.536 24.4521 101.536 23.334C101.536 22.2207 102.039 21.5615 102.869 21.5615C103.704 21.5615 104.207 22.2158 104.207 23.334C104.207 24.4521 103.709 25.1064 102.869 25.1064ZM106.297 26H107.513V18.627H106.297V26ZM108.626 26H109.842V20.6631H108.626V26ZM109.231 19.9844C109.612 19.9844 109.915 19.6914 109.915 19.3154C109.915 18.9346 109.612 18.6465 109.231 18.6465C108.855 18.6465 108.548 18.9346 108.548 19.3154C108.548 19.6914 108.855 19.9844 109.231 19.9844ZM110.916 26H112.132V22.9385C112.132 22.1572 112.581 21.6299 113.328 21.6299C114.061 21.6299 114.422 22.0596 114.422 22.8213V26H115.638V22.582C115.638 21.3467 114.964 20.5996 113.782 20.5996C112.962 20.5996 112.425 20.9414 112.107 21.5908H112.083V20.6631H110.916V26ZM118.987 24.999C118.187 24.999 117.669 24.3545 117.669 23.3193C117.669 22.2793 118.187 21.6152 118.987 21.6152C119.798 21.6152 120.33 22.2939 120.33 23.3193C120.33 24.3447 119.798 24.999 118.987 24.999ZM118.987 27.9336C120.555 27.9336 121.546 27.1426 121.546 25.8682V20.6631H120.354V21.5615H120.33C120.022 20.9707 119.412 20.6045 118.65 20.6045C117.293 20.6045 116.424 21.6592 116.424 23.3145C116.424 24.9453 117.308 25.9805 118.626 25.9805C119.393 25.9805 120.018 25.624 120.301 25.0527H120.33V25.9609C120.33 26.6201 119.817 27.0254 119.026 27.0254C118.416 27.0254 117.938 26.7861 117.835 26.4004H116.619C116.712 27.333 117.654 27.9336 118.987 27.9336Z" fill="white"/>
<defs>
<linearGradient id="paint0_linear_738_15920" x1="202" y1="32" x2="17" y2="64" gradientUnits="userSpaceOnUse">
<stop stop-color="#303036"/>
<stop offset="1" stop-color="#1F1F1F"/>
</linearGradient>
</defs>
</svg>
