<svg width="22" height="22" viewBox="0 0 22 22" fill="none" xmlns="http://www.w3.org/2000/svg">
<path fill-rule="evenodd" clip-rule="evenodd" d="M11 20.625C16.3157 20.625 20.625 16.3157 20.625 11C20.625 5.68426 16.3157 1.375 11 1.375C5.68426 1.375 1.375 5.68426 1.375 11C1.375 16.3157 5.68426 20.625 11 20.625Z" stroke="white" stroke-width="1.5" stroke-linecap="round" stroke-linejoin="round"/>
<path d="M2 8H20" stroke="white" stroke-width="1.5" stroke-linecap="round" stroke-linejoin="round"/>
<path d="M2 14H20" stroke="white" stroke-width="1.5" stroke-linecap="round" stroke-linejoin="round"/>
<path fill-rule="evenodd" clip-rule="evenodd" d="M11 1.375C13.5794 4.01066 15.0453 7.43108 15.125 11C15.0453 14.5689 13.5794 17.9893 11 20.625C8.42055 17.9893 6.95466 14.5689 6.875 11C6.95466 7.43108 8.42055 4.01066 11 1.375V1.375Z" stroke="white" stroke-width="1.5" stroke-linecap="round" stroke-linejoin="round"/>
</svg>
